<svg viewBox="0 -86 512.00142 512" xmlns="http://www.w3.org/2000/svg"><path d="m508.078125 265.480469c-3.039063 10.617187-14.109375 16.765625-24.726563 13.726562-10.621093-3.035156-16.765624-14.105469-13.730468-24.726562 3.414062-11.929688 3.140625-24.496094-.78125-36.335938l-45.03125-135.832031c-8.386719-25.308594-31.941406-42.3125-58.605469-42.3125h-218.378906c-26.667969 0-50.21875 17.003906-58.609375 42.3125l-45.027344 135.832031c-5.203125 15.703125-3.976562 32.578125 3.460938 47.511719 7.425781 14.921875 20.113281 25.988281 35.71875 31.164062 15.558593 5.15625 32.253906 3.847657 47.011718-3.6875 14.785156-7.550781 25.800782-20.382812 31.023438-36.132812l2.960937-8.933594c8.34375-25.167968 31.765625-42.082031 58.28125-42.082031h68.734375c26.519532 0 49.941406 16.914063 58.285156 42.082031l2.960938 8.933594c8.386719 25.304688 32.480469 42.980469 58.589844 42.976562 5.011718 0 10.035156-.621093 14.925781-1.847656 10.714844-2.679687 21.574219 3.832032 24.257813 14.542969 2.683593 10.714844-3.828126 21.574219-14.542969 24.257813-8.066407 2.019531-16.355469 3.042968-24.636719 3.042968-21.203125 0-41.632812-6.65625-59.082031-19.253906-17.652344-12.746094-30.613281-30.425781-37.476563-51.132812l-2.960937-8.933594c-2.910157-8.777344-11.074219-14.671875-20.316407-14.671875h-68.734374c-9.246094 0-17.410157 5.894531-20.320313 14.667969l-2.960937 8.9375c-8.550782 25.792968-26.589844 46.804687-50.800782 59.167968-24.363281 12.441406-51.984375 14.582032-77.785156 6.027344-25.792969-8.550781-46.726562-26.769531-58.9375-51.300781-12.175781-24.457031-14.171875-52.128907-5.617188-77.921875l45.027344-135.832032c13.824219-41.707031 52.632813-69.726562 96.570313-69.726562h218.378906c43.9375 0 82.75 28.019531 96.574219 69.726562l45.027344 135.832032c6.464843 19.507812 6.90625 40.226562 1.273437 59.921875zm-157.074219-193.484375c-11.042968 0-19.996094 8.953125-19.996094 20 0 11.042968 8.953126 19.996094 19.996094 19.996094 11.046875 0 20-8.953126 20-19.996094 0-11.046875-8.953125-20-20-20zm0 119.992187c11.046875 0 20-8.953125 20-20 0-11.042969-8.953125-19.996093-20-19.996093-11.042968 0-19.996094 8.953124-19.996094 19.996093s8.953126 20 19.996094 20zm-39.996094-79.996093c-11.042968 0-19.996093 8.953124-19.996093 20 0 11.046874 8.953125 20 19.996093 20 11.046876 0 20-8.953126 20-20 0-11.046876-8.953124-20-20-20zm79.996094 40c11.042969 0 19.996094-8.953126 19.996094-20 0-11.046876-8.953125-20-19.996094-20-11.046875 0-20 8.953124-20 20 0 11.042968 8.953125 20 20 20zm-229.984375 39.996093c11.046875 0 20-8.953125 20-20v-19.996093h19.996094c11.046875 0 20-8.953126 20-20 0-11.046876-8.953125-20-20-20h-19.996094v-19.996094c0-11.046875-8.953125-20-20-20-11.042969 0-19.996093 8.953125-19.996093 20v19.996094h-20c-11.042969 0-20 8.953124-20 20 0 11.046874 8.957031 20 20 20h20v19.996093c0 11.042969 8.953124 20 19.996093 20zm0 0"/></svg>