<svg xmlns="http://www.w3.org/2000/svg" viewBox="0 0 286.76 143.42"><defs><style>.cls-1{fill:#4d57a3;stroke:#1d1d1b;}.cls-1,.cls-2,.cls-3{stroke-miterlimit:10;}.cls-1,.cls-2{stroke-width:4px;}.cls-2{fill:#fff;stroke:#4d57a3;}.cls-3{fill:none;stroke:#fef8f8;}</style></defs><title>Recurso 3</title><g id="Capa_2" data-name="Capa 2"><g id="Capa_1-2" data-name="Capa 1"><polygon class="cls-1" points="146.81 140.59 145.4 139.18 145.4 2.08 282.51 2.08 283.93 3.49 259.1 28.32 175.98 28.33 175.98 36.47 251.1 36.31 222.09 65.32 175.98 65.32 175.98 111.43 146.81 140.59"/><polygon class="cls-2" points="139.94 140.52 61.54 62.12 95.86 62.13 110.9 77.15 110.9 27.51 26.91 27.5 2.83 3.42 4.24 2 141.36 2 141.36 139.1 139.94 140.52"/><polygon class="cls-3" points="173.49 110.58 173.49 63.21 221.08 63.2 245.78 38.2 173.49 38.2 173.49 26.21 258.01 26.21 280.02 3.96 146.9 3.96 146.91 137.06 173.49 110.58"/><polygon class="cls-1" points="111.39 80.67 94.94 64.24 66.31 64.24 139.25 137.21 139.26 4.13 6.17 4.11 27.63 25.58 112.81 25.61 112.81 79.26 111.39 80.67"/></g></g></svg>